<svg xmlns="http://www.w3.org/2000/svg" width="25" height="19" fill="none" viewBox="0 0 25 19">
  <path fill="#f00"
    d="M24.413 5.469H21.49l-.812-2.032A5.441 5.441 0 0 0 15.6 0H9.4a5.443 5.443 0 0 0-5.078 3.438l-.813 2.03H.586a.586.586 0 0 0-.568.729L.31 7.369c.065.26.3.444.568.444h.98A3.103 3.103 0 0 0 .78 10.156V12.5c0 .787.3 1.498.781 2.047v2.64c0 .863.7 1.563 1.563 1.563h1.562c.863 0 1.563-.7 1.563-1.563v-1.562h12.5v1.563c0 .862.7 1.562 1.562 1.562h1.563c.863 0 1.562-.7 1.562-1.563v-2.64a3.1 3.1 0 0 0 .782-2.047v-2.344c0-.938-.423-1.77-1.078-2.344h.98a.585.585 0 0 0 .568-.443l.293-1.172a.586.586 0 0 0-.569-.728Zm-17.19-.87a2.344 2.344 0 0 1 2.176-1.474H15.6c.959 0 1.82.583 2.177 1.473l.973 2.433H6.25l.973-2.433ZM4.687 12.49c-.937 0-1.562-.623-1.562-1.557 0-.935.625-1.558 1.562-1.558.938 0 2.344 1.402 2.344 2.336 0 .935-1.406.78-2.344.78Zm15.625 0c-.937 0-2.343.156-2.343-.779 0-.934 1.406-2.336 2.343-2.336.938 0 1.563.623 1.563 1.558 0 .934-.625 1.557-1.563 1.557Z" />
</svg>
