<svg xmlns="http://www.w3.org/2000/svg" width="22" height="25" fill="none" viewBox="0 0 22 25">
  <path fill="#4B4B4B" d="M0 22.656A2.344 2.344 0 0 0 2.344 25H19.53a2.344 2.344 0 0 0 2.344-2.344V9.375H0v13.281Zm15.625-9.57c0-.322.264-.586.586-.586h1.953c.322 0 .586.264.586.586v1.953a.588.588 0 0 1-.586.586h-1.953a.588.588 0 0 1-.586-.586v-1.953Zm0 6.25c0-.322.264-.586.586-.586h1.953c.322 0 .586.264.586.586v1.953a.588.588 0 0 1-.586.586h-1.953a.588.588 0 0 1-.586-.586v-1.953Zm-6.25-6.25c0-.322.264-.586.586-.586h1.953c.322 0 .586.264.586.586v1.953a.588.588 0 0 1-.586.586H9.961a.588.588 0 0 1-.586-.586v-1.953Zm0 6.25c0-.322.264-.586.586-.586h1.953c.322 0 .586.264.586.586v1.953a.588.588 0 0 1-.586.586H9.961a.588.588 0 0 1-.586-.586v-1.953Zm-6.25-6.25c0-.322.264-.586.586-.586h1.953c.322 0 .586.264.586.586v1.953a.588.588 0 0 1-.586.586H3.711a.588.588 0 0 1-.586-.586v-1.953Zm0 6.25c0-.322.264-.586.586-.586h1.953c.322 0 .586.264.586.586v1.953a.588.588 0 0 1-.586.586H3.711a.588.588 0 0 1-.586-.586v-1.953ZM19.531 3.125h-2.343V.781A.784.784 0 0 0 16.405 0h-1.562a.784.784 0 0 0-.781.781v2.344h-6.25V.781A.784.784 0 0 0 7.03 0H5.47a.784.784 0 0 0-.782.781v2.344H2.345A2.344 2.344 0 0 0 0 5.469v2.343h21.875V5.47a2.344 2.344 0 0 0-2.344-2.344Z"/>
</svg>
