<svg xmlns="http://www.w3.org/2000/svg" width="15" height="25" fill="none" viewBox="0 0 15 25">
  <path fill="#f00"
    d="M10.213 11.396 4.94 9.854a1.44 1.44 0 0 1 .405-2.822h3.237c.596 0 1.182.18 1.67.512.298.2.698.151.952-.098l1.7-1.66c.346-.337.297-.898-.088-1.196a6.904 6.904 0 0 0-4.224-1.465V.781A.784.784 0 0 0 7.811 0H6.248a.784.784 0 0 0-.781.781v2.344h-.122a5.35 5.35 0 0 0-5.322 5.84c.205 2.25 1.923 4.082 4.091 4.717l5.005 1.464c.61.181 1.036.748 1.036 1.382a1.44 1.44 0 0 1-1.441 1.44H5.477a2.98 2.98 0 0 1-1.67-.512.761.761 0 0 0-.952.098l-1.7 1.66c-.346.337-.297.898.088 1.196a6.904 6.904 0 0 0 4.224 1.465v2.344c0 .43.352.781.781.781h1.563c.43 0 .781-.352.781-.781v-2.354c2.275-.044 4.41-1.396 5.161-3.55 1.05-3.007-.713-6.093-3.54-6.919Z" />
</svg>
