<svg xmlns="http://www.w3.org/2000/svg" width="25" height="20" fill="none" viewBox="0 0 25 20">
  <path fill="#f00"
    d="M8.75 10a5 5 0 1 0 0-10 5 5 0 0 0 0 10Zm3.5 1.25h-.652a6.808 6.808 0 0 1-5.696 0H5.25A5.251 5.251 0 0 0 0 16.5v1.625C0 19.16.84 20 1.875 20h10.738a1.876 1.876 0 0 1-.101-.832l.265-2.379.047-.434.309-.308 3.02-3.02a5.197 5.197 0 0 0-3.903-1.777Zm1.77 5.676-.266 2.383a.622.622 0 0 0 .687.687l2.38-.265 5.386-5.387-2.8-2.801-5.387 5.383Zm10.707-6.422-1.48-1.48a.936.936 0 0 0-1.321 0L20.449 10.5l-.16.16 2.805 2.8 1.633-1.632a.94.94 0 0 0 0-1.324Z" />
</svg>
