<svg xmlns="http://www.w3.org/2000/svg" width="25" height="23" fill="none" viewBox="0 0 25 23">
  <path fill="#f00"
    d="m17.474 3.607 3.915 3.915a.424.424 0 0 1 0 .599l-9.48 9.479-4.027.447a.844.844 0 0 1-.933-.933l.447-4.028 9.479-9.48a.424.424 0 0 1 .599 0Zm7.031-.994L22.387.495a1.698 1.698 0 0 0-2.396 0L18.455 2.03a.424.424 0 0 0 0 .6l3.915 3.914a.424.424 0 0 0 .599 0l1.536-1.536c.66-.664.66-1.736 0-2.396Zm-7.838 12.409v4.418H2.777V5.551h9.975a.532.532 0 0 0 .369-.152l1.736-1.736a.52.52 0 0 0-.37-.89H2.084A2.085 2.085 0 0 0 0 4.857v15.277c0 1.15.933 2.084 2.083 2.084h15.278c1.15 0 2.083-.933 2.083-2.084v-6.848a.522.522 0 0 0-.89-.37l-1.735 1.737a.533.533 0 0 0-.152.369Z" />
</svg>
