<svg xmlns="http://www.w3.org/2000/svg" width="245" height="245" fill="none" viewBox="0 0 245 245">
  <circle cx="122.5" cy="122.5" r="122.5" fill="#4FA684"/>
  <path fill="#fff" d="M77 100 25 61h52v39Zm0-39h130.74c6.331 0 11.069 5.808 9.797 12.01L212 100H77V61Zm0 48h53l-18 91H55l22-91Z"/>
  <path fill="#fff" d="M100 159h99.5l-6 32.799a10 10 0 0 1-9.837 8.201H100v-41Zm50.027-20H203l-3.5 20H147l3.027-20Zm5.555-40H212l-4.03 21H152l3.582-21Z"/>
  <path fill="#4FA684" d="m205 60.85 6.503-6.505 14.85 14.85-6.504 6.504zM48 193.504 54.504 187l14.85 14.85-6.505 6.503zm147-9.004 4.905 7.155-12.34 14.849L182.16 200 195 184.5Z"/>
</svg>
