<svg xmlns="http://www.w3.org/2000/svg" width="32" height="26" fill="none" viewBox="0 0 32 26">
  <path fill="#4FA684" d="m25.608 9.545-.41.715a.618.618 0 0 1-.756.27 5.526 5.526 0 0 1-1.605-.93.62.62 0 0 1-.14-.785l.41-.715a4.315 4.315 0 0 1-.795-1.37h-.825c-.3 0-.56-.215-.61-.515-.1-.6-.105-1.23 0-1.855.05-.3.31-.52.61-.52h.825c.18-.505.45-.97.795-1.37l-.41-.715a.615.615 0 0 1 .14-.786 5.59 5.59 0 0 1 1.605-.93.618.618 0 0 1 .756.27l.41.715a4.443 4.443 0 0 1 1.585 0l.41-.715a.618.618 0 0 1 .755-.27c.59.22 1.13.535 1.605.93.23.19.29.525.14.786l-.41.715c.345.4.615.865.795 1.37h.825c.3 0 .56.215.61.515.1.6.105 1.23 0 1.855-.05.3-.31.52-.61.52h-.825c-.18.505-.45.97-.795 1.37l.41.715c.15.26.095.595-.14.785-.475.395-1.02.71-1.605.93a.618.618 0 0 1-.755-.27l-.41-.715c-.52.095-1.06.095-1.585 0Zm-.526-2.94c1.926 1.48 4.12-.715 2.64-2.64-1.924-1.485-4.12.715-2.64 2.64ZM19.317 14.3l1.685.84c.505.29.725.905.525 1.455-.445 1.21-1.32 2.32-2.13 3.29-.37.445-1.01.555-1.515.265l-1.455-.84a8.59 8.59 0 0 1-2.745 1.585v1.68c0 .58-.415 1.08-.986 1.18-1.23.21-2.52.22-3.795 0-.575-.1-1-.595-1-1.18v-1.68a8.684 8.684 0 0 1-2.745-1.585l-1.455.835c-.5.29-1.145.18-1.515-.265-.81-.97-1.665-2.08-2.11-3.285-.2-.545.02-1.16.525-1.455l1.665-.84a8.663 8.663 0 0 1 0-3.17L.6 10.284a1.192 1.192 0 0 1-.526-1.45c.446-1.21 1.3-2.32 2.11-3.29A1.195 1.195 0 0 1 3.7 5.279l1.455.84A8.59 8.59 0 0 1 7.9 4.535V2.85c0-.575.41-1.075.98-1.175 1.23-.21 2.525-.22 3.8-.005.576.1 1 .595 1 1.18v1.68c1.016.36 1.946.9 2.746 1.585l1.455-.84c.5-.29 1.145-.18 1.515.265.81.97 1.66 2.08 2.105 3.29.2.545.005 1.16-.5 1.455l-1.685.84a8.69 8.69 0 0 1 0 3.176Zm-5.88 1.055c2.96-3.85-1.435-8.246-5.286-5.286-2.96 3.85 1.435 8.246 5.286 5.286Zm12.17 9.135-.41.715a.618.618 0 0 1-.755.27 5.525 5.525 0 0 1-1.605-.93.621.621 0 0 1-.14-.785l.41-.715a4.316 4.316 0 0 1-.795-1.37h-.825c-.3 0-.56-.215-.61-.515-.1-.6-.105-1.23 0-1.855.05-.3.31-.52.61-.52h.825c.18-.505.45-.97.795-1.37l-.41-.715a.615.615 0 0 1 .14-.785 5.59 5.59 0 0 1 1.605-.93.618.618 0 0 1 .756.27l.41.715a4.444 4.444 0 0 1 1.585 0l.41-.715a.618.618 0 0 1 .755-.27c.59.22 1.13.535 1.605.93.23.19.29.525.14.785l-.41.715c.345.4.615.865.795 1.37h.825c.3 0 .56.215.61.515.1.6.105 1.23 0 1.855-.05.3-.31.52-.61.52h-.825c-.18.505-.45.97-.795 1.37l.41.715c.15.26.095.595-.14.785a5.59 5.59 0 0 1-1.605.93.618.618 0 0 1-.755-.27l-.41-.715c-.52.095-1.06.095-1.585 0Zm-.524-2.945c1.925 1.48 4.12-.715 2.64-2.64-1.925-1.48-4.12.715-2.64 2.64Z"/>
</svg>
