<svg xmlns="http://www.w3.org/2000/svg" width="20" height="20" fill="none" viewBox="0 0 20 20">
  <path fill="#4B4B4B" d="M.714 3.673h18.572c.394 0 .714-.365.714-.816V.817C20 .364 19.68 0 19.286 0H.714C.32 0 0 .365 0 .816v2.041c0 .451.32.816.714.816Zm0 8.164h18.572c.394 0 .714-.366.714-.817V8.98c0-.451-.32-.817-.714-.817H.714C.32 8.163 0 8.53 0 8.98v2.04c0 .451.32.817.714.817Zm0 8.163h18.572c.394 0 .714-.366.714-.816v-2.041c0-.451-.32-.817-.714-.817H.714c-.394 0-.714.366-.714.817v2.04c0 .451.32.817.714.817Z"/>
</svg>
