<svg xmlns="http://www.w3.org/2000/svg" width="25" height="19" fill="none" viewBox="0 0 25 19">
  <path fill="#f00"
    d="m24.268 10.206-8.204 8.203c-.732.733-2.002.22-2.002-.83v-4.687h-6.64A1.17 1.17 0 0 1 6.25 11.72V7.032c0-.65.522-1.172 1.172-1.172h6.64V1.173c0-1.045 1.265-1.563 2.002-.83l8.204 8.203a1.182 1.182 0 0 1 0 1.66Zm-14.893 7.96v-1.954a.588.588 0 0 0-.586-.586H4.688a1.56 1.56 0 0 1-1.563-1.563V4.69a1.56 1.56 0 0 1 1.563-1.563h4.101a.588.588 0 0 0 .586-.586V.587a.588.588 0 0 0-.586-.586H4.688A4.689 4.689 0 0 0 0 4.689v9.374a4.69 4.69 0 0 0 4.688 4.688h4.101a.588.588 0 0 0 .586-.586Z" />
</svg>
